<?xml version="1.0"?>
<svg width="420" height="200" xmlns="http://www.w3.org/2000/svg" xmlns:svg="http://www.w3.org/2000/svg">
 <!-- Created with SVG-edit - http://svg-edit.googlecode.com/ -->
 <g>
  <title>Layer 1</title>
  <text stroke="#000000" transform="matrix(4.14938497543335,0,0,2.346153736114502,-424.084370598197,-69.32691740989685) " xml:space="preserve" text-anchor="middle" font-family="serif" font-size="24" id="svg_1" y="80.172132" x="151.373994" stroke-width="0" fill="#000000">JD</text>
  <polygon stroke-width="0" stroke="#000000" points="22.90839666734845,10.5 15.370879951593711,20.874501732814082 3.174921714732065,16.911794687223782 3.174921714732063,4.0882053127762195 15.37087995159371,0.12549826718591994 22.90839666734845,10.499999999999996 " strokeWidth="0" strokecolor="#000000" fill="#000000" edge="12.823589" orient="x" sides="5" shape="regularPoly" id="svg_2" cy="10.5" cx="12"/>
  <polygon stroke-width="0" stroke="#000000" points="15.128554241472102,11.5 12.27579342281365,15.426488414230038 7.6599294564503,13.92670329642684 7.659929456450299,9.07329670357316 12.27579342281365,7.573511585769962 15.128554241472102,11.499999999999998 " strokeWidth="0" strokecolor="#000000" fill="#000000" edge="4.853407" orient="x" sides="5" shape="regularPoly" id="svg_3" cy="11.5" cx="11"/>
  <polygon stroke-width="0" stroke="#000000" points="44.74399959656377,23.5 35.93811245164568,35.62026385997478 21.689887750072437,30.990735018081413 21.689887750072437,16.00926498191859 35.93811245164568,11.37973614002522 44.74399959656377,23.499999999999996 " strokeWidth="0" strokecolor="#000000" fill="#000000" edge="14.98147" orient="x" sides="5" shape="regularPoly" id="svg_4" cy="23.5" cx="32"/>
  <polygon stroke-width="0" stroke="#000000" points="71.86111119589799,36.5 60.21036990357817,52.53586967483595 41.359074498472836,46.41071249821234 41.359074498472836,26.589287501787663 60.21036990357817,20.464130325164053 71.86111119589799,36.49999999999999 " strokeWidth="0" strokecolor="#000000" fill="#000000" edge="19.821425" orient="x" sides="5" shape="regularPoly" id="svg_5" cy="36.5" cx="55"/>
  <polygon stroke-width="0" stroke="#000000" points="116.92646283480717,53.5 97.62975160873579,80.05964445611778 66.40701697386064,69.91476300299351 66.40701697386064,37.08523699700649 97.62975160873577,26.94035554388221 116.92646283480717,53.49999999999999 " strokeWidth="0" strokecolor="#000000" fill="#000000" edge="32.829526" orient="x" sides="5" shape="regularPoly" id="svg_6" cy="53.5" cx="89"/>
  <polygon stroke-width="0" stroke="#000000" points="162.2898899781714,74.5 139.97812474975225,105.20951027419349 103.87693026116204,93.47952112731568 103.87693026116203,55.52047887268432 139.97812474975225,43.79048972580651 162.2898899781714,74.49999999999999 " strokeWidth="0" strokecolor="#000000" fill="#000000" edge="37.959042" orient="x" sides="5" shape="regularPoly" id="svg_7" cy="74.5" cx="130"/>
  <polygon stroke-width="0" stroke="#000000" points="-652,-237.5 -652,-237.5 -652,-237.5 -652,-237.5 -652,-237.5 -652,-237.5 " strokeWidth="0" strokecolor="#000000" fill="#000000" edge="0" orient="x" sides="5" shape="regularPoly" id="svg_8" cy="-237.5" cx="-652"/>
 </g>
</svg>